<svg width="28" height="28" viewBox="0 0 28 28" fill="none" xmlns="http://www.w3.org/2000/svg">
<g clip-path="url(#clip0_10_154)">
<path d="M14.0051 0.0180969C8.16589 0.0180969 6.45816 0.0241207 6.12621 0.0516578C4.92791 0.151265 4.18226 0.339937 3.36991 0.744389C2.74387 1.05526 2.25014 1.41561 1.76286 1.92074C0.875437 2.84195 0.337602 3.97527 0.142906 5.32244C0.0482469 5.97645 0.0207098 6.10983 0.0151163 9.45043C0.012965 10.564 0.0151163 12.0295 0.0151163 13.9951C0.0151163 19.8296 0.0215703 21.5356 0.0495377 21.8669C0.146348 23.0329 0.329212 23.7665 0.716453 24.569C1.45651 26.105 2.86994 27.2581 4.53508 27.6884C5.11164 27.8369 5.74844 27.9186 6.56594 27.9573C6.91231 27.9724 10.4427 27.9831 13.9752 27.9831C17.5077 27.9831 21.0402 27.9788 21.3779 27.9616C22.3245 27.9171 22.8742 27.8433 23.4819 27.6863C24.3076 27.4745 25.077 27.0851 25.7366 26.5452C26.3962 26.0053 26.9299 25.3279 27.3006 24.5604C27.6803 23.7773 27.8728 23.0157 27.9599 21.9106C27.9789 21.6696 27.9868 17.828 27.9868 13.9915C27.9868 10.1543 27.9782 6.3198 27.9593 6.07885C27.8711 4.95585 27.6785 4.20073 27.2866 3.40258C26.9649 2.74922 26.6078 2.2613 26.0893 1.7624C25.1643 0.878633 24.0327 0.340798 22.684 0.146317C22.0306 0.051873 21.9005 0.0239055 18.5573 0.0180969H14.0051Z" fill="url(#paint0_radial_10_154)"/>
<path d="M14.0051 0.0180969C8.16589 0.0180969 6.45816 0.0241207 6.12621 0.0516578C4.92791 0.151265 4.18226 0.339937 3.36991 0.744389C2.74387 1.05526 2.25014 1.41561 1.76286 1.92074C0.875437 2.84195 0.337602 3.97527 0.142906 5.32244C0.0482469 5.97645 0.0207098 6.10983 0.0151163 9.45043C0.012965 10.564 0.0151163 12.0295 0.0151163 13.9951C0.0151163 19.8296 0.0215703 21.5356 0.0495377 21.8669C0.146348 23.0329 0.329212 23.7665 0.716453 24.569C1.45651 26.105 2.86994 27.2581 4.53508 27.6884C5.11164 27.8369 5.74844 27.9186 6.56594 27.9573C6.91231 27.9724 10.4427 27.9831 13.9752 27.9831C17.5077 27.9831 21.0402 27.9788 21.3779 27.9616C22.3245 27.9171 22.8742 27.8433 23.4819 27.6863C24.3076 27.4745 25.077 27.0851 25.7366 26.5452C26.3962 26.0053 26.9299 25.3279 27.3006 24.5604C27.6803 23.7773 27.8728 23.0157 27.9599 21.9106C27.9789 21.6696 27.9868 17.828 27.9868 13.9915C27.9868 10.1543 27.9782 6.3198 27.9593 6.07885C27.8711 4.95585 27.6785 4.20073 27.2866 3.40258C26.9649 2.74922 26.6078 2.2613 26.0893 1.7624C25.1643 0.878633 24.0327 0.340798 22.684 0.146317C22.0306 0.051873 21.9005 0.0239055 18.5573 0.0180969H14.0051Z" fill="url(#paint1_radial_10_154)"/>
<path d="M13.998 3.67477C11.1935 3.67477 10.8415 3.68704 9.74004 3.73716C8.64071 3.7875 7.89032 3.96155 7.23373 4.21691C6.55455 4.48067 5.97843 4.83349 5.40445 5.40768C4.83004 5.98166 4.47722 6.55778 4.21261 7.23675C3.9566 7.89355 3.78234 8.64415 3.73286 9.74306C3.68381 10.8445 3.6709 11.1967 3.6709 14.0012C3.6709 16.8057 3.68338 17.1566 3.73329 18.2581C3.78384 19.3574 3.95789 20.1078 4.21304 20.7644C4.47701 21.4436 4.82982 22.0197 5.40402 22.5937C5.97778 23.1681 6.55391 23.5217 7.23266 23.7855C7.88967 24.0409 8.64028 24.2149 9.7394 24.2652C10.8409 24.3154 11.1926 24.3276 13.9969 24.3276C16.8016 24.3276 17.1525 24.3154 18.254 24.2652C19.3533 24.2149 20.1045 24.0409 20.7616 23.7855C21.4405 23.5217 22.0158 23.1681 22.5896 22.5937C23.164 22.0197 23.5168 21.4436 23.7814 20.7646C24.0353 20.1078 24.2095 19.3572 24.2612 18.2583C24.3106 17.1568 24.3235 16.8057 24.3235 14.0012C24.3235 11.1967 24.3106 10.8448 24.2612 9.74327C24.2095 8.64394 24.0353 7.89355 23.7814 7.23696C23.5168 6.55778 23.164 5.98166 22.5896 5.40768C22.0152 4.83327 21.4407 4.48045 20.7609 4.21691C20.1026 3.96155 19.3518 3.7875 18.2525 3.73716C17.151 3.68704 16.8003 3.67477 13.995 3.67477H13.998ZM13.0716 5.53568C13.3465 5.53525 13.6533 5.53568 13.998 5.53568C16.7551 5.53568 17.0819 5.54558 18.1707 5.59506C19.1775 5.6411 19.724 5.80933 20.088 5.95068C20.5699 6.13784 20.9135 6.36158 21.2747 6.72301C21.6361 7.08443 21.8598 7.42865 22.0474 7.91055C22.1888 8.27412 22.3572 8.82056 22.403 9.82739C22.4525 10.916 22.4633 11.243 22.4633 13.9988C22.4633 16.7547 22.4525 17.0817 22.403 18.1703C22.357 19.1771 22.1888 19.7236 22.0474 20.0871C21.8603 20.569 21.6361 20.9122 21.2747 21.2734C20.9132 21.6348 20.5701 21.8585 20.088 22.0457C19.7244 22.1877 19.1775 22.3555 18.1707 22.4015C17.0821 22.451 16.7551 22.4618 13.998 22.4618C11.2406 22.4618 10.9138 22.451 9.82523 22.4015C8.81841 22.3551 8.27197 22.1868 7.90775 22.0455C7.42585 21.8583 7.08163 21.6346 6.72021 21.2732C6.35878 20.9117 6.13504 20.5684 5.94745 20.0863C5.8061 19.7227 5.63765 19.1763 5.59183 18.1694C5.54235 17.0808 5.53245 16.7538 5.53245 13.9963C5.53245 11.2387 5.54235 10.9134 5.59183 9.82481C5.63787 8.81798 5.8061 8.27154 5.94745 7.90754C6.13461 7.42563 6.35878 7.08142 6.72021 6.72C7.08163 6.35857 7.42585 6.13483 7.90775 5.94723C8.27175 5.80525 8.81841 5.63744 9.82523 5.59119C10.7778 5.54816 11.147 5.53525 13.0716 5.5331V5.53568ZM19.5101 7.2503C19.265 7.2503 19.0254 7.32299 18.8216 7.45917C18.6179 7.59535 18.459 7.78891 18.3652 8.01536C18.2715 8.24182 18.247 8.49099 18.2948 8.73138C18.3427 8.97177 18.4607 9.19257 18.6341 9.36585C18.8074 9.53914 19.0282 9.65712 19.2686 9.70489C19.5091 9.75265 19.7582 9.72805 19.9846 9.63419C20.2111 9.54034 20.4046 9.38144 20.5407 9.17761C20.6768 8.97377 20.7494 8.73415 20.7493 8.48904C20.7493 7.80492 20.1943 7.24987 19.5101 7.24987V7.2503ZM13.998 8.69815C11.0694 8.69815 8.69492 11.0726 8.69492 14.0012C8.69492 16.9298 11.0694 19.3032 13.998 19.3032C16.9266 19.3032 19.3004 16.9298 19.3004 14.0012C19.3004 11.0726 16.9264 8.69815 13.9978 8.69815H13.998ZM13.998 10.5591C15.8989 10.5591 17.4401 12.1001 17.4401 14.0012C17.4401 15.9021 15.8989 17.4433 13.998 17.4433C12.0968 17.4433 10.5558 15.9021 10.5558 14.0012C10.5558 12.1001 12.0968 10.5591 13.998 10.5591Z" fill="white"/>
</g>
<defs>
<radialGradient id="paint0_radial_10_154" cx="0" cy="0" r="1" gradientUnits="userSpaceOnUse" gradientTransform="translate(7.44444 30.137) rotate(-90) scale(27.7154 25.7846)">
<stop stop-color="#FFDD55"/>
<stop offset="0.1" stop-color="#FFDD55"/>
<stop offset="0.5" stop-color="#FF543E"/>
<stop offset="1" stop-color="#C837AB"/>
</radialGradient>
<radialGradient id="paint1_radial_10_154" cx="0" cy="0" r="1" gradientUnits="userSpaceOnUse" gradientTransform="translate(-4.67141 2.03265) rotate(78.6776) scale(12.389 51.081)">
<stop stop-color="#3771C8"/>
<stop offset="0.128" stop-color="#3771C8"/>
<stop offset="1" stop-color="#6600FF" stop-opacity="0"/>
</radialGradient>
<clipPath id="clip0_10_154">
<rect width="28" height="28" fill="white"/>
</clipPath>
</defs>
</svg>
