<svg width="28" height="28" viewBox="0 0 28 28" fill="none" xmlns="http://www.w3.org/2000/svg">
<path fill-rule="evenodd" clip-rule="evenodd" d="M14 0C6.11339 0 0 5.77697 0 13.58C0 17.6615 1.67272 21.1884 4.39679 23.6245C4.62547 23.8292 4.76351 24.1159 4.77289 24.4228L4.84913 26.9131C4.87349 27.7074 5.69401 28.2243 6.42089 27.9035L9.1997 26.6768C9.43526 26.5729 9.69922 26.5536 9.94744 26.6219C11.2244 26.973 12.5834 27.16 14 27.16C21.8867 27.16 28.0001 21.3831 28.0001 13.58C28.0001 5.77697 21.8867 0 14 0Z" fill="url(#paint0_radial_5_142)"/>
<path fill-rule="evenodd" clip-rule="evenodd" d="M5.59307 17.5514L9.70557 11.0269C10.3597 9.98891 11.7606 9.73047 12.7421 10.4666L16.013 12.9198C16.3131 13.1449 16.726 13.1437 17.0249 12.9169L21.4424 9.56429C22.032 9.11685 22.8016 9.82245 22.407 10.4486L18.2945 16.9732C17.6403 18.0111 16.2395 18.2696 15.258 17.5335L11.987 15.0802C11.6869 14.8552 11.274 14.8564 10.9752 15.0832L6.55767 18.4358C5.96807 18.8832 5.19841 18.1776 5.59307 17.5514Z" fill="white"/>
<defs>
<radialGradient id="paint0_radial_5_142" cx="0" cy="0" r="1" gradientUnits="userSpaceOnUse" gradientTransform="translate(5.38929 27.8503) scale(30.5087 30.5087)">
<stop stop-color="#0099FF"/>
<stop offset="0.609754" stop-color="#A033FF"/>
<stop offset="0.934823" stop-color="#FF5280"/>
<stop offset="1" stop-color="#FF7061"/>
</radialGradient>
</defs>
</svg>
