<svg width="28" height="28" viewBox="0 0 28 28" fill="none" xmlns="http://www.w3.org/2000/svg">
<circle cx="14" cy="14" r="14" fill="#19C562"/>
<path d="M8.96765 26.2556L5.48794 22.946L3.78711 22.2981L3.07575 26.64C2.92494 27.5605 3.83597 28.2936 4.70287 27.9493L8.96765 26.2556Z" fill="#19C562"/>
<path d="M7.45941 19.1097C6.73712 19.1097 6.15198 18.8857 5.70398 18.4377C5.26512 17.9806 5.0457 17.3863 5.0457 16.6549V16.2983C5.0457 16.2069 5.09141 16.1611 5.18284 16.1611H6.1977C6.28912 16.1611 6.33484 16.2069 6.33484 16.2983V16.5863C6.33484 17.0069 6.43998 17.3451 6.65027 17.6011C6.86055 17.848 7.13027 17.9714 7.45941 17.9714C7.78855 17.9714 8.05827 17.8526 8.26855 17.6149C8.48798 17.368 8.5977 17.048 8.5977 16.6549C8.5977 16.3897 8.53827 16.1566 8.41941 15.9554C8.3097 15.7543 8.15884 15.576 7.96684 15.4206C7.78398 15.256 7.48227 15.0183 7.0617 14.7074C6.59541 14.36 6.2297 14.0629 5.96455 13.816C5.69941 13.5691 5.47541 13.272 5.29255 12.9246C5.1097 12.5771 5.01827 12.1703 5.01827 11.704C5.01827 10.9634 5.2377 10.3783 5.67655 9.94857C6.11541 9.50971 6.68684 9.29029 7.39084 9.29029C8.12227 9.29029 8.70741 9.52343 9.14627 9.98971C9.59427 10.456 9.81827 11.0686 9.81827 11.8274V12.1703C9.81827 12.2617 9.77255 12.3074 9.68113 12.3074H8.66627C8.57484 12.3074 8.52913 12.2617 8.52913 12.1703V11.8C8.52913 11.3886 8.42398 11.0594 8.2137 10.8126C8.00341 10.5566 7.72912 10.4286 7.39084 10.4286C7.07084 10.4286 6.81027 10.5429 6.60912 10.7714C6.40798 10.9909 6.30741 11.3017 6.30741 11.704C6.30741 12.0697 6.40798 12.3806 6.60912 12.6366C6.81027 12.8834 7.19884 13.2171 7.77484 13.6377C8.32341 14.0491 8.73484 14.3829 9.00913 14.6389C9.29255 14.8949 9.50741 15.1783 9.6537 15.4891C9.80913 15.7909 9.88684 16.152 9.88684 16.5726C9.88684 17.3406 9.66284 17.9577 9.21484 18.424C8.76684 18.8811 8.1817 19.1097 7.45941 19.1097ZM15.4793 9.496C15.5158 9.432 15.5707 9.4 15.6438 9.4H16.6861C16.7776 9.4 16.8233 9.44571 16.8233 9.53714V18.8629C16.8233 18.9543 16.7776 19 16.6861 19H15.6438C15.5524 19 15.5067 18.9543 15.5067 18.8629V12.0606C15.5067 12.0331 15.4976 12.0194 15.4793 12.0194C15.4701 12.0194 15.4564 12.0286 15.4381 12.0469L14.1216 14.5017C14.0941 14.5657 14.053 14.5977 13.9981 14.5977C13.9433 14.5977 13.9021 14.5657 13.8747 14.5017L12.5718 12.0606C12.5536 12.0423 12.5353 12.0331 12.517 12.0331C12.5078 12.0331 12.5033 12.0469 12.5033 12.0743V18.8629C12.5033 18.9543 12.4576 19 12.3661 19H11.3238C11.2324 19 11.1867 18.9543 11.1867 18.8629V9.53714C11.1867 9.44571 11.2324 9.4 11.3238 9.4H12.3661C12.4301 9.4 12.485 9.432 12.5307 9.496L13.9707 12.0743C13.9798 12.0834 13.9936 12.088 14.0118 12.088C14.0301 12.088 14.0438 12.0834 14.053 12.0743L15.4793 9.496ZM20.571 19.1097C19.8487 19.1097 19.2636 18.8857 18.8156 18.4377C18.3767 17.9806 18.1573 17.3863 18.1573 16.6549V16.2983C18.1573 16.2069 18.203 16.1611 18.2944 16.1611H19.3093C19.4007 16.1611 19.4464 16.2069 19.4464 16.2983V16.5863C19.4464 17.0069 19.5516 17.3451 19.7619 17.6011C19.9722 17.848 20.2419 17.9714 20.571 17.9714C20.9002 17.9714 21.1699 17.8526 21.3802 17.6149C21.5996 17.368 21.7093 17.048 21.7093 16.6549C21.7093 16.3897 21.6499 16.1566 21.531 15.9554C21.4213 15.7543 21.2704 15.576 21.0784 15.4206C20.8956 15.256 20.5939 15.0183 20.1733 14.7074C19.707 14.36 19.3413 14.0629 19.0762 13.816C18.811 13.5691 18.587 13.272 18.4042 12.9246C18.2213 12.5771 18.1299 12.1703 18.1299 11.704C18.1299 10.9634 18.3493 10.3783 18.7882 9.94857C19.227 9.50971 19.7984 9.29029 20.5024 9.29029C21.2339 9.29029 21.819 9.52343 22.2579 9.98971C22.7059 10.456 22.9299 11.0686 22.9299 11.8274V12.1703C22.9299 12.2617 22.8842 12.3074 22.7927 12.3074H21.7779C21.6864 12.3074 21.6407 12.2617 21.6407 12.1703V11.8C21.6407 11.3886 21.5356 11.0594 21.3253 10.8126C21.115 10.5566 20.8407 10.4286 20.5024 10.4286C20.1824 10.4286 19.9219 10.5429 19.7207 10.7714C19.5196 10.9909 19.419 11.3017 19.419 11.704C19.419 12.0697 19.5196 12.3806 19.7207 12.6366C19.9219 12.8834 20.3104 13.2171 20.8864 13.6377C21.435 14.0491 21.8464 14.3829 22.1207 14.6389C22.4042 14.8949 22.619 15.1783 22.7653 15.4891C22.9207 15.7909 22.9984 16.152 22.9984 16.5726C22.9984 17.3406 22.7744 17.9577 22.3264 18.424C21.8784 18.8811 21.2933 19.1097 20.571 19.1097Z" fill="white"/>
</svg>
