<svg width="34" height="34" viewBox="0 0 34 34" fill="none" xmlns="http://www.w3.org/2000/svg">
<path d="M17 0C7.61183 0 0 7.61058 0 17.0001C0 26.3897 7.61186 34 17 34C19.9602 34 23.5956 33.2563 26.1896 31.8536L31.1417 32.5328C31.549 32.6674 31.9973 32.5605 32.3 32.2564C32.6027 31.9524 32.708 31.5035 32.572 31.0964L31.8412 26.2207C33.3665 23.5614 34 20.0829 34 17.0001C34 7.61058 26.3882 0 17 0Z" fill="#361E7C"/>
<ellipse cx="9.3948" cy="17.4595" rx="2.23684" ry="2.2973" fill="white"/>
<ellipse cx="16.9999" cy="17.4595" rx="2.98246" ry="3.06306" fill="white"/>
<ellipse cx="24.6053" cy="17.4595" rx="2.23684" ry="2.2973" fill="white"/>
</svg>
